# xmcd CD database file
#
# Track frame offsets:
#	150
#	15396
#	32640
#	45782
#	61596
#	81037
#	91928
#	108109
#	123439
#	137515
#	150196
#	162842
#
# Disc length: 2387 seconds
#
# Revision: 0
# Processed by: cddbd v1.5.2PL0 Copyright (c) Steve Scherf et al.
# Submitted via: CDex 1.51
#
DISCID=7209510c
DTITLE=WORKSHOP 69 - GET UP AND DANCE
DYEAR=2009
DGENRE=Country
TTITLE0=Francien Sittrop - Not Fair
TTITLE1=Rafel Corbi  - Kiss A Girl
TTITLE2=Ivonne van Loon - I'm Ready
TTITLE3=Dee Musk  - Lonely Nevermore
TTITLE4=Kata Sala - Footsteps Of Our Fathers
TTITLE5=Robbie McGowan Hickie - U Turn
TTITLE6=Celeste Sali - Unchain My Feet
TTITLE7=Rick and Deborah Bates - Do A Little Dance
TTITLE8=Rob Fowler  - MoJo Rythm
TTITLE9=Rachael McEnaney - Hesitation Blues
TTITLE10=Daniel Clément - Honky Tonk Crowd
TTITLE11=Roy Thompson - God Love Her
EXTD=YEAR: 2009
EXTT0=
EXTT1=
EXTT2=
EXTT3=
EXTT4=
EXTT5=
EXTT6=
EXTT7=
EXTT8=
EXTT9=
EXTT10=
EXTT11=
PLAYORDER=
